<!DOCTYPE svg PUBLIC "-//W3C//DTD SVG 1.1//EN" "http://www.w3.org/Graphics/SVG/1.1/DTD/svg11.dtd">
<svg
	xmlns="http://www.w3.org/2000/svg"
	xmlns:xlink="http://www.w3.org/1999/xlink" display="none">
	<symbol viewBox="0 0 39 39" id="whatsapp"
		xmlns="http://www.w3.org/2000/svg">
		<path fill="#00E676" d="M10.7,32.8l0.6,0.3c2.5,1.5,5.3,2.2,8.1,2.2l0,0c8.8,0,16-7.2,16-16c0-4.2-1.7-8.3-4.7-11.3
        c-3-3-7-4.7-11.3-4.7c-8.8,0-16,7.2-15.9,16.1c0,3,0.9,5.9,2.4,8.4l0.4,0.6l-1.6,5.9L10.7,32.8z"/>
		<path fill="#FFFFFF" d="M32.4,6.4C29,2.9,24.3,1,19.5,1C9.3,1,1.1,9.3,1.2,19.4c0,3.2,0.9,6.3,2.4,9.1L1,38l9.7-2.5
			c2.7,1.5,5.7,2.2,8.7,2.2l0,0c10.1,0,18.3-8.3,18.3-18.4C37.7,14.4,35.8,9.8,32.4,6.4z M19.5,34.6L19.5,34.6c-2.7,0-5.4-0.7-7.7-2.1
			l-0.6-0.3l-5.8,1.5L6.9,28l-0.4-0.6c-4.4-7.1-2.3-16.5,4.9-20.9s16.5-2.3,20.9,4.9s2.3,16.5-4.9,20.9C25.1,33.8,22.3,34.6,19.5,34.6
			z M28.3,23.5L27.2,23c0,0-1.6-0.7-2.6-1.2c-0.1,0-0.2-0.1-0.3-0.1c-0.3,0-0.5,0.1-0.7,0.2l0,0c0,0-0.1,0.1-1.5,1.7
			c-0.1,0.2-0.3,0.3-0.5,0.3h-0.1c-0.1,0-0.3-0.1-0.4-0.2l-0.5-0.2l0,0c-1.1-0.5-2.1-1.1-2.9-1.9c-0.2-0.2-0.5-0.4-0.7-0.6
			c-0.7-0.7-1.4-1.5-1.9-2.4l-0.1-0.2c-0.1-0.1-0.1-0.2-0.2-0.4c0-0.2,0-0.4,0.1-0.5c0,0,0.4-0.5,0.7-0.8c0.2-0.2,0.3-0.5,0.5-0.7
			c0.2-0.3,0.3-0.7,0.2-1c-0.1-0.5-1.3-3.2-1.6-3.8c-0.2-0.3-0.4-0.4-0.7-0.5h-0.3c-0.2,0-0.5,0-0.8,0c-0.2,0-0.4,0.1-0.6,0.1
			l-0.1,0.1c-0.2,0.1-0.4,0.3-0.6,0.4c-0.2,0.2-0.3,0.4-0.5,0.6c-0.7,0.9-1.1,2-1.1,3.1l0,0c0,0.8,0.2,1.6,0.5,2.3l0.1,0.3
			c0.9,1.9,2.1,3.6,3.7,5.1l0.4,0.4c0.3,0.3,0.6,0.5,0.8,0.8c2.1,1.8,4.5,3.1,7.2,3.8c0.3,0.1,0.7,0.1,1,0.2l0,0c0.3,0,0.7,0,1,0
			c0.5,0,1.1-0.2,1.5-0.4c0.3-0.2,0.5-0.2,0.7-0.4l0.2-0.2c0.2-0.2,0.4-0.3,0.6-0.5c0.2-0.2,0.4-0.4,0.5-0.6c0.2-0.4,0.3-0.9,0.4-1.4
			c0-0.2,0-0.5,0-0.7C28.6,23.7,28.5,23.6,28.3,23.5z"/>
	</symbol>
	<symbol viewBox="0 49.4 512 399.4200000000001" id="gmail">
		<g fill="none" fill-rule="evenodd">
			<g fill-rule="nonzero">
				<path d="M34.91 448.818h81.454V251L0 163.727V413.91c0 19.287 15.622 34.91 34.91 34.91z" fill="#4285f4"/>
				<path d="M395.636 448.818h81.455c19.287 0 34.909-15.622 34.909-34.909V163.727L395.636 251z" fill="#34a853"/>
				<path d="M395.636 99.727V251L512 163.727v-46.545c0-43.142-49.25-67.782-83.782-41.891z" fill="#fbbc04"/>
			</g>
			<path d="M116.364 251V99.727L256 204.455 395.636 99.727V251L256 355.727z" fill="#ea4335"/>
			<path d="M0 117.182v46.545L116.364 251V99.727L83.782 75.291C49.25 49.4 0 74.04 0 117.18z" fill="#c5221f" fill-rule="nonzero"/>
		</g>
	</symbol>
	<symbol viewBox="-0.12979372698077785 0 33.25199671942124 32" id="outlook">
		<path d="M28.596 2H11.404A1.404 1.404 0 0 0 10 3.404V5l9.69 3L30 5V3.404A1.404 1.404 0 0 0 28.596 2z" fill="#0364b8"/>
		<path d="M31.65 17.405A11.341 11.341 0 0 0 32 16a.666.666 0 0 0-.333-.576l-.013-.008-.004-.002L20.812 9.24a1.499 1.499 0 0 0-.145-.083 1.5 1.5 0 0 0-1.334 0 1.49 1.49 0 0 0-.145.082L8.35 15.415l-.004.002-.012.007A.666.666 0 0 0 8 16a11.344 11.344 0 0 0 .35 1.405l11.492 8.405z" fill="#0a2767"/>
		<path d="M24 5h-7l-2.021 3L17 11l7 6h6v-6z" fill="#28a8ea"/>
		<path d="M10 5h7v6h-7z" fill="#0078d4"/>
		<path d="M24 5h6v6h-6z" fill="#50d9ff"/>
		<path d="M24 17l-7-6h-7v6l7 6 10.832 1.768z" fill="#0364b8"/>
		<path d="M10.031 5H30" fill="none"/>
		<path d="M17 11h7v6h-7z" fill="#0078d4"/>
		<path d="M10 17h7v6h-7z" fill="#064a8c"/>
		<path d="M24 17h6v6h-6z" fill="#0078d4"/>
		<path d="M20.19 25.218l-11.793-8.6.495-.87s10.745 6.12 10.909 6.212a.528.528 0 0 0 .42-.012l10.933-6.23.496.869z" fill="#0a2767" opacity=".5"/>
		<path d="M31.667 16.577l-.014.008-.003.002-10.838 6.174a1.497 1.497 0 0 1-1.46.091l3.774 5.061 8.254 1.797v.004A1.498 1.498 0 0 0 32 28.5V16a.666.666 0 0 1-.333.577z" fill="#1490df"/>
		<path d="M32 28.5v-.738l-9.983-5.688-1.205.687a1.497 1.497 0 0 1-1.46.091l3.774 5.061 8.254 1.797v.004A1.498 1.498 0 0 0 32 28.5z" opacity=".05"/>
		<path d="M31.95 28.883L21.007 22.65l-.195.11a1.497 1.497 0 0 1-1.46.092l3.774 5.061 8.254 1.797v.004a1.501 1.501 0 0 0 .57-.83z" opacity=".1"/>
		<path d="M8.35 16.59v-.01h-.01l-.03-.02A.65.65 0 0 1 8 16v12.5A1.498 1.498 0 0 0 9.5 30h21a1.503 1.503 0 0 0 .37-.05.637.637 0 0 0 .18-.06.142.142 0 0 0 .06-.02 1.048 1.048 0 0 0 .23-.13c.02-.01.03-.01.04-.03z" fill="#28a8ea"/>
		<path d="M18 24.667V8.333A1.337 1.337 0 0 0 16.667 7H10.03V14.456l-1.68.958-.005.002-.012.007A.666.666 0 0 0 8 16v.005V16 26h8.667A1.337 1.337 0 0 0 18 24.667z" opacity=".1"/>
		<path d="M17 25.667V9.333A1.337 1.337 0 0 0 15.667 8H10.03V14.456l-1.68.958-.005.002-.012.007A.666.666 0 0 0 8 16v.005V16 27h7.667A1.337 1.337 0 0 0 17 25.667z" opacity=".2"/>
		<path d="M17 23.667V9.333A1.337 1.337 0 0 0 15.667 8H10.03V14.456l-1.68.958-.005.002-.012.007A.666.666 0 0 0 8 16v.005V16 25h7.667A1.337 1.337 0 0 0 17 23.667z" opacity=".2"/>
		<path d="M16 23.667V9.333A1.337 1.337 0 0 0 14.667 8H10.03V14.456l-1.68.958-.005.002-.012.007A.666.666 0 0 0 8 16v.005V16 25h6.667A1.337 1.337 0 0 0 16 23.667z" opacity=".2"/>
		<path d="M1.333 8h13.334A1.333 1.333 0 0 1 16 9.333v13.334A1.333 1.333 0 0 1 14.667 24H1.333A1.333 1.333 0 0 1 0 22.667V9.333A1.333 1.333 0 0 1 1.333 8z" fill="#0078d4"/>
		<path d="M3.867 13.468a4.181 4.181 0 0 1 1.642-1.814A4.965 4.965 0 0 1 8.119 11a4.617 4.617 0 0 1 2.413.62 4.14 4.14 0 0 1 1.598 1.733 5.597 5.597 0 0 1 .56 2.55 5.901 5.901 0 0 1-.577 2.666 4.239 4.239 0 0 1-1.645 1.794A4.8 4.8 0 0 1 7.963 21a4.729 4.729 0 0 1-2.468-.627 4.204 4.204 0 0 1-1.618-1.736 5.459 5.459 0 0 1-.567-2.519 6.055 6.055 0 0 1 .557-2.65zm1.75 4.258a2.716 2.716 0 0 0 .923 1.194 2.411 2.411 0 0 0 1.443.435 2.533 2.533 0 0 0 1.541-.449 2.603 2.603 0 0 0 .897-1.197 4.626 4.626 0 0 0 .286-1.665 5.063 5.063 0 0 0-.27-1.686 2.669 2.669 0 0 0-.866-1.24 2.387 2.387 0 0 0-1.527-.473 2.493 2.493 0 0 0-1.477.439 2.741 2.741 0 0 0-.944 1.203 4.776 4.776 0 0 0-.007 3.44z" fill="#fff"/>
		<path d="M0 0h32v32H0z" fill="none"/>
	</symbol>
	<symbol viewBox="0 0 100 100" id="note_private">
		<path fill="#FFFFFF" d="M71.3,67l-1.1,1.1C69,69.3,67.3,70,65.6,70h-3.3c-3,0-6.3-2.3-6.3-6.5v-3.1c0-2.5,1.1-4,1.8-4.8L71.3,42
			c0.4-0.4,0.7-1.2,0.7-1.7V30c0-3.3-2.7-6-6-6H34c-3.3,0-6,3-6,6h-2c-2.2,0-4,1.8-4,4c0,2.2,1.8,4,4,4h2v8h-2c-2.2,0-4,1.8-4,4
			c0,2.2,1.8,4,4,4h2v8h-2c-2.2,0-4,1.8-4,4c0,2.2,1.8,4,4,4h2c0,4,2.7,6,6,6h23h9c3.3,0,6-2.7,6-6v-2.7C72,66.7,71.7,66.6,71.3,67z
			 M61,39c0,1.1-0.9,2-2,2H39c-1.1,0-2-0.9-2-2v-2c0-1.1,0.9-2,2-2h20c1.1,0,2,0.9,2,2V39z M52,63c0,1.1-0.9,2-2,2H39
			c-1.1,0-2-0.9-2-2v-2c0-1.1,0.9-2,2-2h11c1.1,0,2,0.9,2,2V63z M55,51c0,1.1-0.9,2-2,2H39c-1.1,0-2-0.9-2-2v-2c0-1.1,0.9-2,2-2h14
			c1.1,0,2,0.9,2,2V51z"/>
		<path fill="#FFFFFF" d="M81.4,45.6l-1.2-1.2c-0.8-0.8-2-0.8-2.8,0L62.1,59.9C62,59.9,62,60.1,62,60.2v3.3c0,0.3,0,0.5,0.3,0.5h3.3
			c0.1,0,0.3-0.1,0.4-0.1l15.4-15.4C82.2,47.6,82.2,46.4,81.4,45.6z"/>
		<path id="Shape" fill="#FFFFFF" fill-opacity="0.65" d="M89,84c-1.1,0-2,0.9-2,2v1h4v-1
			C91,84.9,90.1,84,89,84L89,84L89,84z"/>
		<path id="Shape_1_" fill="#FFFFFF" fill-opacity="0.65" d="M100,100V62l-38,38H100z M95,93.5
			c0,0.8-0.7,1.5-1.5,1.5h-9c-0.8,0-1.5-0.7-1.5-1.5v-5c0-0.8,0.7-1.5,1.5-1.5H85v-1c0-2.2,1.8-4,4-4s4,1.8,4,4v1h0.5
			c0.8,0,1.5,0.7,1.5,1.5V93.5L95,93.5z"/>
	</symbol>
</svg>