<svg xmlns="http://www.w3.org/2000/svg" width="289" height="78.889"><defs><clipPath id="a"><path data-name="Clip 8" d="M0 0h41.974v34.781H0z" transform="translate(.069 .109)" fill="none"/></clipPath></defs><path data-name="Fill 1" d="M31.483 74C12.762 74 0 59.189 0 47.115c0-9.4.124-47.1.124-47.1L63 0s-.037 37.671-.037 47.111C62.963 59.189 50.208 74 31.483 74" fill="#fffffe"/><path data-name="Fill 2" d="M101 43h3.382v18.239a25.175 25.175 0 00.292 4.361c.5 2.243 2.59 3.491 5.8 3.491 2.382 0 4.179-.623 5.055-1.788s1.086-2.2 1.086-4.861V43H120v19.818c0 4.073-.418 5.443-2.172 6.98-1.754 1.5-4.05 2.2-7.516 2.2-4.426.002-7.142-1.411-8.478-4.11-.626-1.248-.834-1.83-.834-4.988V43" fill="#fff"/><path data-name="Fill 3" d="M126 50.865l3.159-.865a6.89 6.89 0 01.747 3.212c2.162-2.141 4.323-3.169 6.525-3.169a5.5 5.5 0 015.07 3 5.846 5.846 0 01.499 2.392V71h-3.283V57.125c0-2.182-.124-2.759-.747-3.419a3.046 3.046 0 00-2.285-.864 9.561 9.561 0 00-5.737 2.882V71h-3.159V55.724c0-2.84-.083-3.294-.789-4.859" fill="#fff"/><path data-name="Fill 4" d="M158 50.8l-.978 2.511h-4.277v13.174c0 2.264.611 3.047 2.607 3.047a4.193 4.193 0 002.037-.412l.447 2.058a7.451 7.451 0 01-3.584.822 5.839 5.839 0 01-2.652-.576c-1.425-.7-1.956-2.017-1.956-4.074V53.314H147V50.8h2.648v-.244c0-1.029.081-2.181.286-4.281l.041-.535 3.299-.74a52.261 52.261 0 00-.406 5.8H158" fill="#fff"/><path data-name="Fill 5" d="M171.818 72a8.084 8.084 0 01-6.474-2.836A12.1 12.1 0 01163 61.36c0-3.413.694-5.6 2.395-7.548A7.407 7.407 0 01171.34 51a7.139 7.139 0 015.385 2.21c1.7 1.757 2.194 3.569 2.275 8.43v.442h-12.407v.482a7.893 7.893 0 00.916 4.376 5.628 5.628 0 004.948 2.45 6.8 6.8 0 004.867-1.89l1.2 2.008A9.863 9.863 0 01171.818 72zm-.638-18.51a3.882 3.882 0 00-3.3 1.561 8.343 8.343 0 00-1.29 4.663h9.1a8.659 8.659 0 00-.918-4.458 4.247 4.247 0 00-3.592-1.766z" fill="#fff"/><path data-name="Fill 6" d="M186 50.942l3.274-.86a5.9 5.9 0 01.713 3.03v.288a7.624 7.624 0 015.879-3.4 4.006 4.006 0 011.134.206l-1.343 3.479a2.609 2.609 0 00-.924-.163 5.051 5.051 0 00-3.487 1.472 3.622 3.622 0 00-1.215 3.234V71h-3.276V55.444a9.236 9.236 0 00-.755-4.502" fill="#fff"/><g data-name="Group 10"><path data-name="Clip 8" d="M201.069 44.109h41.974V78.89h-41.974z" fill="none"/><g data-name="Group 10" clip-path="url(#a)" fill="#fff" transform="translate(201 44)"><path data-name="Fill 7" d="M15.422 28.209a4.158 4.158 0 01-2.806-2.97c-2.015 1.988-3.627 2.726-5.947 2.726-2.626 0-3.879-.65-4.953-1.626a5.945 5.945 0 01-1.647-4.148 6.161 6.161 0 012.864-5.362 14.626 14.626 0 018.036-1.92c.5 0 .744 0 1.445.04v-1.42c0-1.822-.1-2.535-.661-3.173a3.411 3.411 0 00-2.763-1.1 9.907 9.907 0 00-3.962.9 8.518 8.518 0 00-2.6 1.5L.813 9.38a15.564 15.564 0 018.624-2.724c2.859 0 4.829 1.1 5.7 3.173a7.964 7.964 0 01.455 3.458v1.016l-.167 6.669a7.113 7.113 0 00-.04.936c0 2.476.379 3.379 1.69 4.025l-1.652 2.276zm-4.706-11.141c-2.983 0-4.8.5-5.9 1.626a4.335 4.335 0 00-1.156 3.215c0 2.421 1.227 3.7 3.549 3.7a5.655 5.655 0 004.994-3.172l.125-5.287-.433-.028h-.015l-.111-.013c-.365-.021-.65-.041-1.053-.041zm2.023-12.73a2.173 2.173 0 01-2.186-2.155A2.113 2.113 0 0112.698.109a2.14 2.14 0 012.147 2.074 2.133 2.133 0 01-2.106 2.155zm-8.544 0a2.152 2.152 0 01-2.144-2.154A2.092 2.092 0 014.156.109a2.115 2.115 0 11.04 4.229z"/><path data-name="Fill 9" d="M31.809 35c-3.552 0-6.08-.671-7.514-1.993a4.166 4.166 0 01-1.402-3.172 6.023 6.023 0 01.413-2.156l3.387-.283-.163.324a3.424 3.424 0 00-.413 1.5 2.648 2.648 0 001.2 2.36 8.824 8.824 0 004.169.934c2.306 0 3.667-.477 4.414-1.546a2.982 2.982 0 00.58-1.991 2.742 2.742 0 00-1.114-2.441 7.391 7.391 0 00-4.045-.772c-.435 0-1.1.022-1.752.044-.573.019-1.113.037-1.424.037-2.429 0-3.88-1.094-3.88-2.927a2.608 2.608 0 01.789-1.993 6.786 6.786 0 012.678-1.383l.247-.081a6.78 6.78 0 01-3.348-2.241 5.772 5.772 0 01-1.285-3.611 6.434 6.434 0 012.111-4.94 8.042 8.042 0 015.485-1.89 9.729 9.729 0 012.971.446l1.4.448a6.3 6.3 0 001.9.245 4.7 4.7 0 002.849-.9l1.981 1.961a5.545 5.545 0 01-3.467 1.22 2.984 2.984 0 01-1.4-.245 5.3 5.3 0 011.238 3.457 6.9 6.9 0 01-2.227 5 6.858 6.858 0 01-4.21 1.465h-.459l-.453.162c-2.225.812-3.261 1.51-3.261 2.2 0 .611.617.976 1.651.976h3.3c2.437 0 3.733.3 4.953 1.139a4.861 4.861 0 012.269 4.271 5.665 5.665 0 01-3.137 5.408 11.027 11.027 0 01-5.031.968zm-.95-25.537c-2.61 0-3.879 1.343-3.879 4.106 0 2.582 1.37 3.947 3.962 3.947a3.605 3.605 0 002.784-1.012 4.417 4.417 0 00.928-3.056 4.25 4.25 0 00-.876-3.029 3.812 3.812 0 00-2.919-.956z"/></g></g><path data-name="Fill 11" d="M255.818 72a8.084 8.084 0 01-6.474-2.836A12.1 12.1 0 01247 61.36c0-3.413.693-5.6 2.393-7.548A7.412 7.412 0 01255.339 51a7.147 7.147 0 015.387 2.21c1.7 1.757 2.194 3.569 2.275 8.43v.442h-12.41v.482a7.9 7.9 0 00.916 4.376 5.624 5.624 0 004.948 2.45 6.8 6.8 0 004.868-1.89l1.2 2.008A9.869 9.869 0 01255.818 72zm-.64-18.51a3.881 3.881 0 00-3.3 1.561 8.35 8.35 0 00-1.287 4.663h9.1a8.642 8.642 0 00-.916-4.458 4.249 4.249 0 00-3.597-1.766z" fill="#fff"/><path data-name="Fill 12" d="M269 50.942l3.275-.86a5.923 5.923 0 01.713 3.03v.288a7.624 7.624 0 015.88-3.4 3.985 3.985 0 011.132.206l-1.343 3.479a2.6 2.6 0 00-.924-.163 5.05 5.05 0 00-3.485 1.472 3.623 3.623 0 00-1.217 3.234V71h-3.276V55.444a9.214 9.214 0 00-.755-4.502" fill="#fff"/><path data-name="Fill 13" d="M288.181 71h-3.403V50.825l3.4-.527V71zM286.5 46.962a2.473 2.473 0 01-2.5-2.439A2.515 2.515 0 01286.5 42a2.463 2.463 0 012.5 2.48 2.464 2.464 0 01-2.5 2.482z" fill="#fff"/><path data-name="Fill 14" d="M42.034 15.615c.666 1.496 2.642 1.378 2.642 1.378l.048.007c.025-.2.059-.41.089-.621.076-.595.153-1.86.187-2.379a5.092 5.092 0 00-3 1.521.424.424 0 00.034.094" fill="#005c9c"/><path data-name="Fill 15" d="M45.432 17a.272.272 0 01-.04 0l-.04-.006h-.1a3.434 3.434 0 01-3.188-1.746.438.438 0 01-.047-.12l-.006-.023a.279.279 0 01.057-.261A6.187 6.187 0 0145.716 13a.209.209 0 01.043 0 .222.222 0 01.16.069.28.28 0 01.081.213l-.018.252c-.051.8-.126 1.93-.2 2.521l-.043.285-.01.069c-.018.127-.036.247-.05.364a.26.26 0 01-.1.176.224.224 0 01-.147.051zm.055-3.418a5.764 5.764 0 00-2.951 1.5 3.007 3.007 0 002.685 1.387c0-.042.011-.085.018-.128l.012-.083.041-.279c.073-.574.153-1.748.194-2.4z" fill="#1a1919"/><path data-name="Fill 16" d="M54.918 15.875A22.506 22.506 0 0052.983 15a1 1 0 01.188 1.4c-.243.384-.938.292-.892.611A4.94 4.94 0 0152 18a11.3 11.3 0 001.785-.646A3.239 3.239 0 0055 16.006a1.3 1.3 0 01-.082-.131" fill="#1a1919"/><path data-name="Fill 17" d="M52.214 18a.211.211 0 01-.159-.07.21.21 0 01-.04-.22 3.776 3.776 0 00.223-.78c-.016-.283.273-.378.445-.43h.01a.628.628 0 00.342-.19.645.645 0 00-.109-.935.208.208 0 01-.055-.269.212.212 0 01.183-.106.215.215 0 01.084.017c.547.214 1.112.47 1.678.759a.2.2 0 01.093.091c.015.03.033.057.051.085l.006.01a.206.206 0 01.015.2 2.934 2.934 0 01-1.136 1.257 9.658 9.658 0 01-1.571.572.194.194 0 01-.06.009zm1.386-2.335a1.158 1.158 0 01-.207.871.986.986 0 01-.57.356h-.007a1.254 1.254 0 00-.147.054.091.091 0 010 .022 4.27 4.27 0 01-.113.5 8.263 8.263 0 001.1-.421 2.416 2.416 0 00.883-.942 21.177 21.177 0 00-.939-.44z" fill="#1a1919"/><path data-name="Fill 18" d="M54.848 23.207a5.5 5.5 0 00-1.432-2.1c-.585-.445-1.198-.797-1.574-1.107.1.151.174.257.174.257a5.245 5.245 0 00-1.626.643c-1.02.562-1.578 1.381-2.288 1.64a.9.9 0 01-1.121-.668c0-.155.254-1.025 0-1.126a.777.777 0 01-.373-.524l-.075.013a13.986 13.986 0 00-2.6 1.326A5.3 5.3 0 0041.913 25a9.825 9.825 0 01-1.083 2.2c-.442.97-.83 3.089-1.07 3.28-1.036.846-4.482 1.572-5.76 1.771a1.127 1.127 0 01.165.221c.969 1.661.9 2.507.273 2.923l.536.352a2.815 2.815 0 00-.68 1.591c.213.312.38.545.463.662h17l.042-.153a7.369 7.369 0 00.791-1.459H42.208V34.58a1.207 1.207 0 00.856-.3.58.58 0 01.411-.119h10.343a10.805 10.805 0 001.027-4.4 28.737 28.737 0 000-6.551" fill="#005c9c"/><path data-name="Fill 19" d="M51.347 38H34.136a.37.37 0 01-.3-.15l-.058-.076c-.107-.14-.255-.341-.416-.564a.356.356 0 01-.062-.272 3.7 3.7 0 01.508-1.374l-.2-.122a.358.358 0 01-.173-.307.362.362 0 01.171-.307c.183-.115.741-.464-.394-2.31a.738.738 0 00-.112-.141.356.356 0 01-.09-.371.366.366 0 01.3-.247c1.377-.2 4.715-.9 5.659-1.626.039-.073.188-.591.307-1.007l.033-.115a13.4 13.4 0 01.636-1.891 5.88 5.88 0 01.488-.824l.01-.015a3.553 3.553 0 00.578-1.219l.028-.086a5.253 5.253 0 012.171-3.413 14.949 14.949 0 012.718-1.314 1.23 1.23 0 01.134-.028.4.4 0 01.07-.006.359.359 0 01.343.252c.063.2.138.268.162.277.478.179.349.832.263 1.264v.011l-.009.049a.926.926 0 00-.018.11l.014.016a.659.659 0 00.492.289.455.455 0 00.141-.023 3.477 3.477 0 00.958-.639 7.273 7.273 0 011.304-.913 7.489 7.489 0 011.275-.537.367.367 0 01.12-.271.362.362 0 01.248-.1.372.372 0 01.228.078c.173.134.4.28.645.435l.058.037c.256.161.574.362.88.581a5.618 5.618 0 011.575 2.176c0 .015.383 1.554.024 6.446a10.519 10.519 0 01-1.084 4.377.368.368 0 01-.322.185H42.962a.458.458 0 00-.175.023 1.451 1.451 0 01-.74.35v1.037H52.19a.369.369 0 01.3.158.361.361 0 01.039.337 7.327 7.327 0 01-.806 1.429l-.026.085a.368.368 0 01-.35.266zm-5.41-16.972a14.151 14.151 0 00-2.318 1.146 4.6 4.6 0 00-1.857 3l-.026.087a4.233 4.233 0 01-.675 1.419 4.82 4.82 0 00-.445.746 13.194 13.194 0 00-.588 1.764l-.005.019c-.287 1.006-.4 1.344-.6 1.5C38.275 31.6 34.7 32.26 34 32.384c.7 1.2.839 2.1.409 2.694l.146.089a.361.361 0 01.169.281.356.356 0 01-.127.3 2.337 2.337 0 00-.536 1.166c.068.1.131.18.186.254l.077.1h16.769l.005-.007a7.151 7.151 0 00.514-.813H41.68a.367.367 0 01-.37-.364v-1.731a.365.365 0 01.118-.266.457.457 0 01.275-.1h.005a.922.922 0 00.574-.178.954.954 0 01.669-.223h10.267a10.35 10.35 0 00.893-3.886 27.187 27.187 0 00.007-6.181l-.009-.019a4.7 4.7 0 00-1.3-1.778c-.279-.2-.557-.379-.826-.549l-.019-.012-.157-.1-.138-.092h-.011a5.483 5.483 0 00-1.522.578 6.757 6.757 0 00-1.18.831l-.016.013a4.032 4.032 0 01-1.171.754 1.271 1.271 0 01-.4.068 1.221 1.221 0 01-.906-.415 1.106 1.106 0 01-.316-.637 1.787 1.787 0 01.044-.284v-.014a3.194 3.194 0 00.07-.5.95.95 0 01-.324-.335z" fill="#1a1919"/><path data-name="Fill 20" d="M31.788 37H30v-1.911h.079a3.877 3.877 0 00.935-.128c.244.191.5.385.774.594V37zm-.552-5.481a6.185 6.185 0 00-.663-.032c-.111 0-.224 0-.338.007a1.224 1.224 0 01-.1-.13l1.1.154zm.552-1.158l-.108-.047a4.467 4.467 0 00-.743-.051c-.278 0-.583.014-.931.042V9.432c.445-.415.914-.824 1.356-1.184.123-.1.243-.2.358-.3l.009-.007.06-.049v22.47zm0-23.85l-1.553-.024h-.23V1.942a.984.984 0 01.195-.68.884.884 0 01.695-.262.875.875 0 01.692.263 1.015 1.015 0 01.2.711v4.537z" fill="#fffffe"/><path data-name="Fill 21" d="M31.688 38h-1.375a.346.346 0 01-.313-.374V35.7a.414.414 0 01.1-.262.288.288 0 01.216-.106h.017a2.113 2.113 0 00.679-.116.257.257 0 01.079-.013.281.281 0 01.2.087l.082.082c.18.181.35.352.514.512a.4.4 0 01.113.289v1.453a.346.346 0 01-.312.374zm-.675-2.019a2.846 2.846 0 01-.392.078v1.2h.759v-.908l-.087-.086-.28-.284zm-.657-.781h-.015a.277.277 0 01-.208-.1.434.434 0 01-.06-.514.3.3 0 01.248-.155.26.26 0 01.16.056.384.384 0 01.187.344.345.345 0 01-.312.369zm.977-2.71h-.04a3.182 3.182 0 00-.525-.04c-.087 0-.176 0-.264.008a.311.311 0 01-.262-.15 1.477 1.477 0 01-.1-.173l-.002-.017a.024.024 0 00-.006-.01v-.01l-.034-.052v-.009l-.005-.01a.028.028 0 000-.008.827.827 0 01-.095-.264.376.376 0 01.22-.358.259.259 0 01.09-.016.3.3 0 01.255.165.291.291 0 01.026.05l.006.013.78.143a.368.368 0 01.259.421.337.337 0 01-.3.318zm.355-1.181a.276.276 0 01-.134-.037l-.069-.039a4.432 4.432 0 00-.426-.014 7.055 7.055 0 00-.72.031.185.185 0 01-.031 0 .279.279 0 01-.2-.1.411.411 0 01-.1-.274V9.863a.41.41 0 01.085-.263c.352-.426.719-.845 1.062-1.211v-.005c.091-.1.182-.2.268-.287a.354.354 0 01.257-.117.227.227 0 01.11.026.365.365 0 01.21.31v22.626a.4.4 0 01-.144.313.275.275 0 01-.168.058zm-.66-.843c.117 0 .232 0 .352.014V9.135c-.3.334-.537.614-.759.882v20.467c.166-.01.288-.014.408-.014zm.66-23.177l-1.379-.021A.346.346 0 0130 6.9V2.32a1.578 1.578 0 01.248-.955A.894.894 0 0131 1a.892.892 0 01.748.365 1.621 1.621 0 01.245 1.035L32 6.922a.417.417 0 01-.091.266.291.291 0 01-.221.105zM31 1.743a.34.34 0 00-.29.114.715.715 0 00-.09.423v4.25l.759.015V2.352a.87.87 0 00-.093-.494.338.338 0 00-.286-.115z" fill="#1a1919"/><path data-name="Fill 22" d="M27.5 32c-.239.1-.707.57-.4.986.259.351 1.3-.256 1.3-.256s-.93.772-.456 1.2c.407.37 1.256-.54 1.256-.54s-.8.774-.473 1.009c.463.327 1.257-.365 1.257-.365s-.704.766-.334.886a2.416 2.416 0 001.35-.043A303.822 303.822 0 0027.5 32" fill="#f8cb89"/><path data-name="Fill 23" d="M30.763 36a2.127 2.127 0 01-.683-.105.526.526 0 01-.351-.371.867.867 0 01-.015-.1.957.957 0 01-.714-.143.583.583 0 01-.228-.36.746.746 0 01-.648-.179.793.793 0 01-.262-.612 1.061 1.061 0 01.026-.2.75.75 0 01-.708-.265.916.916 0 01-.147-.793 1.385 1.385 0 01.724-.845.368.368 0 01.369.055l.962.791c.6.493 1.166.968 1.693 1.412l1.08.911a.386.386 0 01.125.371.369.369 0 01-.264.284 3.667 3.667 0 01-.959.149" fill="#1a1919"/><path data-name="Fill 24" d="M34.18 32.22a5.912 5.912 0 00-2-1.173 10.52 10.52 0 00-2.245.043c.227.307.456.608.676.9l1.272.158c-1.083-.132-2.931.042-2.883.478.028.272.6.5 1.481.537a1.644 1.644 0 011.387.585c.448.447.782.885.93.976a1.569 1.569 0 001.549.135c.814-.34.98-1.085-.168-2.64" fill="#f8cb89"/><path data-name="Fill 25" d="M33.514 35a1.7 1.7 0 01-1.024-.367 2.467 2.467 0 01-.418-.5l-.028-.039c-.126-.172-.27-.367-.433-.566-.394-.472-.546-.478-.914-.493-1.02-.054-1.653-.394-1.697-.911a.566.566 0 01.157-.44 1.872 1.872 0 011.094-.437l-.376-.613a.364.364 0 01-.018-.342.36.36 0 01.275-.2A11.854 11.854 0 0131.527 30a3.893 3.893 0 01.695.049 5.056 5.056 0 012 1.424 3.413 3.413 0 01.719 2.509 1.32 1.32 0 01-.715.828 1.341 1.341 0 01-.712.19zm-2.331-3.1a3.809 3.809 0 00-1.4.211 1.968 1.968 0 00.9.208 1.681 1.681 0 011.481.754c.174.21.323.414.455.593l.032.044.024.033a3.819 3.819 0 00.252.324.99.99 0 00.59.22.678.678 0 00.356-.092.656.656 0 00.389-.407c.079-.272.031-.83-.643-1.94a4.444 4.444 0 00-1.609-1.121c-.078 0-.285-.011-.537-.011-.191 0-.466 0-.692.024l.212.348.948.143a.364.364 0 01.242.144.357.357 0 01-.288.569.412.412 0 01-.05 0 4.6 4.6 0 00-.662-.044z" fill="#1a1919"/><path data-name="Fill 26" d="M47.838 60c-3.963 0-3.963 2.274-7.929 2.274S35.935 60 31.96 60s-3.972 2.274-7.944 2.274c-3.95 0-3.95-2.274-7.9-2.274s-3.96 2.274-7.916 2.274a7.115 7.115 0 01-2.2-.307 31.611 31.611 0 003.25 3.971c2.941-.365 3.3-2.212 6.868-2.212 3.948 0 3.948 2.274 7.9 2.274 3.972 0 3.972-2.274 7.944-2.274S35.935 66 39.909 66s3.966-2.274 7.929-2.274c3.573 0 3.9 1.871 6.872 2.218A30.279 30.279 0 0058 61.929a6.933 6.933 0 01-2.3.345c-3.931 0-3.931-2.274-7.862-2.274" fill="#005c9c"/><path data-name="Fill 27" d="M39.8 66a7.792 7.792 0 01-4.1-1.045 7.063 7.063 0 00-3.743-.961 7.052 7.052 0 00-3.74.961A7.79 7.79 0 0124.129 66a7.7 7.7 0 01-4.069-1.046 6.98 6.98 0 00-3.715-.959 7.053 7.053 0 00-3.733.959 7.854 7.854 0 01-2.993.99.308.308 0 01-.048 0 .392.392 0 01-.253-.1A29.4 29.4 0 016.072 62.3a.344.344 0 01-.005-.414.378.378 0 01.305-.149.406.406 0 01.1.013 7.455 7.455 0 002.06.257 7.02 7.02 0 003.722-.958A7.765 7.765 0 0116.345 60a7.725 7.725 0 014.062 1.043 6.99 6.99 0 003.722.963 7.064 7.064 0 003.74-.96h.007A7.8 7.8 0 0131.961 60a7.8 7.8 0 014.086 1.041h.007a7.074 7.074 0 003.739.959 7.035 7.035 0 003.733-.961h.006A7.78 7.78 0 0147.613 60a7.668 7.668 0 014.044 1.042h.006a6.934 6.934 0 003.7.961 7.28 7.28 0 002.151-.286.4.4 0 01.114-.017.37.37 0 01.3.145.338.338 0 010 .417 28.417 28.417 0 01-3.281 3.586.383.383 0 01-.254.1h-.043a7.689 7.689 0 01-3.031-1 6.937 6.937 0 00-3.7-.959 7.028 7.028 0 00-3.73.959A7.772 7.772 0 0139.8 66zm-7.839-2.715a7.794 7.794 0 014.086 1.043h.007a7.072 7.072 0 003.744.961 7.023 7.023 0 003.734-.961h.005a7.77 7.77 0 014.077-1.044 7.664 7.664 0 014.049 1.044h.006a7.04 7.04 0 002.587.895 27.564 27.564 0 002.46-2.605 9.2 9.2 0 01-1.349.092 7.677 7.677 0 01-4.053-1.044 6.925 6.925 0 00-3.7-.962 7.006 7.006 0 00-3.73.962h-.005a7.8 7.8 0 01-4.079 1.047 7.815 7.815 0 01-4.085-1.04h-.008a7.065 7.065 0 00-3.746-.967 7.055 7.055 0 00-3.74.962h-.008a7.813 7.813 0 01-4.083 1.04 7.727 7.727 0 01-4.066-1.045 6.988 6.988 0 00-3.719-.957 7.031 7.031 0 00-3.727.96h-.007a7.768 7.768 0 01-4.076 1.047 9.883 9.883 0 01-1.265-.078 29.436 29.436 0 002.435 2.586 7.221 7.221 0 002.555-.889 7.786 7.786 0 014.084-1.047 7.715 7.715 0 014.063 1.045 6.976 6.976 0 003.722.963 7.055 7.055 0 003.742-.961h.005a7.794 7.794 0 014.085-1.047z" fill="#1a1919"/><path data-name="Fill 28" d="M39.309 68.248C35.4 68.248 35.4 66 31.486 66s-3.909 2.248-7.817 2.248C19.782 68.248 19.782 66 15.9 66a6.808 6.808 0 00-3.9 1.122A30.953 30.953 0 0031.51 74 30.948 30.948 0 0051 67.138 6.7 6.7 0 0047.112 66c-3.9 0-3.9 2.248-7.8 2.248" fill="#005c9c"/><path data-name="Fill 29" d="M32.016 74a33.9 33.9 0 01-19.867-6.33.348.348 0 01-.149-.315.362.362 0 01.193-.291A7.732 7.732 0 0116.3 66a7.683 7.683 0 014.078 1.063h.006a6.946 6.946 0 003.737.979 7.029 7.029 0 003.759-.978l.01-.005A7.757 7.757 0 0131.992 66a7.745 7.745 0 014.114 1.066 7.05 7.05 0 003.763.979 7 7 0 003.754-.979A7.717 7.717 0 0147.726 66a7.6 7.6 0 014.06 1.061h.009a.385.385 0 01.2.3.361.361 0 01-.136.321A33.889 33.889 0 0132.016 74zM16.3 66.722a6.694 6.694 0 00-3.227.712 33.282 33.282 0 0018.943 5.844 33.261 33.261 0 0018.928-5.833 6.6 6.6 0 00-3.218-.723 6.99 6.99 0 00-3.75.979 7.73 7.73 0 01-4.107 1.066 7.769 7.769 0 01-4.111-1.067 7.035 7.035 0 00-3.766-.978 7.008 7.008 0 00-3.759.981 7.768 7.768 0 01-4.113 1.064 7.67 7.67 0 01-4.089-1.067 6.944 6.944 0 00-3.731-.978z" fill="#1a1919"/><path data-name="Fill 30" d="M55.38 47.2c-3.88 0-3.88-2.2-7.752-2.2-3.906 0-3.906 2.2-7.815 2.2S35.9 45 31.977 45s-3.915 2.2-7.83 2.2c-3.893 0-3.893-2.2-7.784-2.2s-3.906 2.2-7.808 2.2C4.732 47.2 4.64 45.1 1 45v.569a29.447 29.447 0 00.31 4.241C4.651 50.02 4.849 52 8.555 52c3.9 0 3.9-2.205 7.808-2.205S20.254 52 24.147 52c3.915 0 3.915-2.205 7.83-2.205S35.9 52 39.813 52s3.91-2.205 7.815-2.205C51.5 49.795 51.5 52 55.38 52c3.72 0 3.871-2.034 7.32-2.2a29.388 29.388 0 00.3-4.231V45c-3.747.049-3.789 2.2-7.62 2.2" fill="#005c9c"/><path data-name="Fill 31" d="M54.977 52a7.793 7.793 0 01-4.07-1.033 7.049 7.049 0 00-3.715-.95 7.132 7.132 0 00-3.746.95A7.915 7.915 0 0139.343 52a7.928 7.928 0 01-4.1-1.029h-.009a7.189 7.189 0 00-3.755-.948 7.171 7.171 0 00-3.754.95h-.008A7.93 7.93 0 0123.613 52a7.839 7.839 0 01-4.082-1.033 7.116 7.116 0 00-3.734-.95 7.132 7.132 0 00-3.746.95h-.007A7.891 7.891 0 017.957 52a7.929 7.929 0 01-4.1-1.028l-.01-.005a7.1 7.1 0 00-3.19-.936.358.358 0 01-.344-.3A23.949 23.949 0 010 45.867v-.51a.341.341 0 01.112-.25.386.386 0 01.259-.1h.01A7.872 7.872 0 014.2 46.036a7.2 7.2 0 003.76.951 7.136 7.136 0 003.736-.945h.006a7.875 7.875 0 014.098-1.037 7.862 7.862 0 014.081 1.03 7.084 7.084 0 003.734.951 7.174 7.174 0 003.756-.95h.006a7.938 7.938 0 014.1-1.029 7.941 7.941 0 014.107 1.03h.006a7.184 7.184 0 003.755.949 7.129 7.129 0 003.749-.95 7.913 7.913 0 014.098-1.031 7.788 7.788 0 014.067 1.033 7.057 7.057 0 003.718.949 7.019 7.019 0 003.712-.949l.01-.005a7.78 7.78 0 013.925-1.026.12.12 0 01.043-.007.374.374 0 01.222.109.333.333 0 01.111.248v.51a24.6 24.6 0 01-.311 3.864.363.363 0 01-.351.3 7 7 0 00-3.293.941h-.006A7.806 7.806 0 0154.977 52zm-7.785-2.682a7.8 7.8 0 014.058 1.028h.008a7.017 7.017 0 003.718.95 7.035 7.035 0 003.713-.949A7.745 7.745 0 0162 49.346a24.186 24.186 0 00.256-3.479v-.151a7.005 7.005 0 00-3.213.937 7.786 7.786 0 01-4.066 1.032 7.8 7.8 0 01-4.077-1.033 7.052 7.052 0 00-3.708-.952 7.142 7.142 0 00-3.746.949 7.925 7.925 0 01-4.1 1.032 7.917 7.917 0 01-4.108-1.032 7.2 7.2 0 00-3.762-.949 7.181 7.181 0 00-3.754.948h-.006a7.935 7.935 0 01-4.1 1.03 7.856 7.856 0 01-4.079-1.029h-.006A7.094 7.094 0 0015.8 45.7a7.142 7.142 0 00-3.746.949 7.877 7.877 0 01-4.1 1.032 7.938 7.938 0 01-4.1-1.028h-.008a7.068 7.068 0 00-3.103-.929v.143a23.329 23.329 0 00.265 3.487 7.9 7.9 0 013.193 1h.009a7.183 7.183 0 003.747.946 7.135 7.135 0 003.743-.947 7.88 7.88 0 014.1-1.035 7.857 7.857 0 014.079 1.03 7.064 7.064 0 003.732.95 7.161 7.161 0 003.757-.95h.008a7.933 7.933 0 014.1-1.028 7.937 7.937 0 014.1 1.03 7.178 7.178 0 003.758.95 7.15 7.15 0 003.746-.949l.011-.006a7.909 7.909 0 014.101-1.027z" fill="#1a1919"/><path data-name="Fill 32" d="M55.447 55.271c-3.89 0-3.89-2.271-7.776-2.271-3.918 0-3.918 2.271-7.839 2.271S35.9 53 31.973 53s-3.927 2.271-7.854 2.271c-3.9 0-3.9-2.271-7.807-2.271s-3.918 2.271-7.831 2.271c-3.407 0-3.857-1.706-6.481-2.161a31.125 31.125 0 001.471 4.174C4.961 57.96 5.821 59 8.481 59c3.914 0 3.914-2.271 7.831-2.271S20.215 59 24.119 59c3.927 0 3.927-2.271 7.854-2.271S35.9 59 39.832 59s3.921-2.271 7.839-2.271c3.886 0 3.886 2.271 7.776 2.271 2.715 0 3.534-1.111 5.109-1.778A30.7 30.7 0 0062 53.086c-2.72.414-3.126 2.185-6.553 2.185" fill="#005c9c"/><path data-name="Fill 33" d="M55.048 59a7.77 7.77 0 01-4.077-1.042h-.006A7.02 7.02 0 0047.238 57a7.133 7.133 0 00-3.752.956h-.005A7.881 7.881 0 0139.366 59a7.912 7.912 0 01-4.118-1.041h-.008A7.17 7.17 0 0031.473 57a7.156 7.156 0 00-3.764.959H27.7A7.915 7.915 0 0123.586 59a7.829 7.829 0 01-4.1-1.045 7.07 7.07 0 00-3.74-.955 7.122 7.122 0 00-3.757.96A7.882 7.882 0 017.881 59a7.9 7.9 0 01-4.122-1.044l-.036-.018c-.32-.163-.651-.332-1.017-.477a.37.37 0 01-.194-.175 26 26 0 01-1.497-3.733.342.342 0 01.076-.333.4.4 0 01.282-.12.309.309 0 01.057 0 8.061 8.061 0 012.682.944A7.158 7.158 0 007.881 55a7.115 7.115 0 003.754-.959A7.877 7.877 0 0115.746 53a7.824 7.824 0 014.089 1.041h.007a7.075 7.075 0 003.744.959 7.162 7.162 0 003.768-.959h.006A7.9 7.9 0 0131.473 53a7.905 7.905 0 014.119 1.043h.008a7.175 7.175 0 003.766.957 7.124 7.124 0 003.761-.959h.006A7.877 7.877 0 0147.238 53a7.77 7.77 0 014.072 1.041h.008a7.027 7.027 0 003.73.959 7.014 7.014 0 003.723-.958h.005a7.906 7.906 0 012.8-.963h.034a.4.4 0 01.3.122.338.338 0 01.076.33 25.786 25.786 0 01-1.468 3.7.371.371 0 01-.2.18 10.857 10.857 0 00-1.19.55A7.792 7.792 0 0155.048 59zm-7.81-2.711a7.78 7.78 0 014.072 1.039h.008a7.029 7.029 0 003.73.96 7.017 7.017 0 003.723-.958c.384-.2.734-.373 1.132-.532a25 25 0 001.189-2.911 7.886 7.886 0 00-1.967.781 7.759 7.759 0 01-4.077 1.043 7.759 7.759 0 01-4.085-1.045 7 7 0 00-3.725-.957 7.091 7.091 0 00-3.757.959 7.892 7.892 0 01-4.115 1.043 7.909 7.909 0 01-4.122-1.043 7.159 7.159 0 00-3.771-.959 7.131 7.131 0 00-3.767.959 7.914 7.914 0 01-4.12 1.043 7.814 7.814 0 01-4.1-1.045 7.067 7.067 0 00-3.74-.957 7.091 7.091 0 00-3.757.959 7.867 7.867 0 01-4.108 1.044 7.9 7.9 0 01-4.119-1.043l-.021-.011a8.332 8.332 0 00-1.826-.737 24.705 24.705 0 001.211 2.94c.355.149.673.311.98.468h.008a7.154 7.154 0 003.766.96 7.089 7.089 0 003.754-.96h.006a7.888 7.888 0 014.105-1.04 7.834 7.834 0 014.089 1.04h.007a7.077 7.077 0 003.745.96 7.158 7.158 0 003.766-.959h.009a7.912 7.912 0 014.113-1.04 7.916 7.916 0 014.119 1.041l.011.006a7.17 7.17 0 003.763.956 7.126 7.126 0 003.761-.96h.006a7.888 7.888 0 014.104-1.044z" fill="#1a1919"/><path data-name="Fill 34" d="M4 37.692c.757 3.547 4.842 7.976 4.842 7.976s.735.681 1.292 1.168c2.334-.486 2.9-1.9 6.162-1.9 3.927 0 3.927 2.064 7.855 2.064 3.951 0 3.951-2.064 7.9-2.064S36.008 47 39.96 47s3.945-2.064 7.887-2.064c3.91 0 3.91 2.064 7.823 2.064A7.931 7.931 0 0060 45.75v-1.63a4.353 4.353 0 00-.377-2l-2.645-2.213V34H43.52a.623.623 0 00-.42.115 1.289 1.289 0 01-.88.285v1.74H54.1v1.55H4" fill="#d8232a"/><path data-name="Fill 35" d="M55.277 47a7.57 7.57 0 01-4.109-1.1 6.862 6.862 0 00-3.749-1 6.942 6.942 0 00-3.78 1.007h-.008a8.376 8.376 0 01-8.283 0h-.007a6.987 6.987 0 00-3.787-1 6.979 6.979 0 00-3.785 1h-.014A7.7 7.7 0 0123.616 47a7.63 7.63 0 01-4.116-1.092h-.008a6.9 6.9 0 00-3.766-1.008 6.968 6.968 0 00-3.776 1h-.007a8.313 8.313 0 01-2.328.924.394.394 0 01-.08.008.379.379 0 01-.249-.1c-.553-.49-1.3-1.192-1.3-1.2-.045-.038-4.186-4.564-4.978-8.319a.37.37 0 01.367-.447h49.95v-.839H41.766a.374.374 0 01-.376-.372v-1.774a.377.377 0 01.12-.273.47.47 0 01.281-.1h.009a.955.955 0 00.58-.179.962.962 0 01.68-.229h13.53a.373.373 0 01.374.371v5.853l2.524 2.149a.336.336 0 01.085.1A4.782 4.782 0 0160 43.691v1.663a.374.374 0 01-.2.33l-.429.224A7.561 7.561 0 0155.277 47zm-7.858-2.848a7.563 7.563 0 014.1 1.1 7.481 7.481 0 007.492.005l.236-.124v-1.44a4.583 4.583 0 00-.309-1.805l-2.6-2.209a.366.366 0 01-.131-.282v-5.654H43.072c-.151 0-.176.022-.178.024a1.477 1.477 0 01-.752.358v1.059H53.7a.373.373 0 01.374.371v1.581a.374.374 0 01-.374.373H3.852c.955 3.409 4.629 7.472 4.666 7.511l.093.087c.19.178.634.591 1.03.947a7.848 7.848 0 001.948-.807 7.693 7.693 0 014.137-1.1 7.632 7.632 0 014.12 1.094 6.886 6.886 0 003.77 1.011 6.966 6.966 0 003.793-1.01 7.717 7.717 0 014.145-1.1 7.712 7.712 0 014.146 1.104h.007a7.616 7.616 0 007.576 0 7.693 7.693 0 014.136-1.093z" fill="#1a1919"/><path data-name="Fill 36" d="M54.812 47V36h-1.624v10.865a9.329 9.329 0 001.624.135" fill="#fffffe"/><path data-name="Fill 37" d="M54.619 47a5.806 5.806 0 01-1.31-.142A.454.454 0 0153 46.4V35.464a.429.429 0 01.381-.464h1.238a.429.429 0 01.381.464v11.072a.517.517 0 01-.111.327.35.35 0 01-.27.137zm-.857-11.072v10.077c.135.023.286.041.475.054V35.928z" fill="#1a1919"/><path data-name="Fill 38" d="M44.935 33.454L45 31.886A3.48 3.48 0 0042.489 30a3.746 3.746 0 00-1.473.49c-.316.326-1.057.922-1.016 1.138a.424.424 0 00.509.378 3.026 3.026 0 00.737-.272s-.892.842-.825 1.136c.054.274.41.274.41.274l1.062-.706s-.967.862-.645 1.194.923-.2.923-.2l.5-.5s-.829.758-.594.976.827.05 1.054-.22.877 0 1.8-.228" fill="#f8cb89"/><path data-name="Fill 39" d="M41.88 34a.9.9 0 01-.55-.155.41.41 0 01-.1-.1 1.135 1.135 0 01-.266.032.836.836 0 01-.518-.162.5.5 0 01-.193-.33c-.161-.007-.7-.063-.8-.483-.02-.067-.06-.208.132-.479a.766.766 0 01-.572-.548c-.085-.332.242-.59.876-1.055l.061-.045.25-.186A4.932 4.932 0 0141.929 30l.108.005a3.928 3.928 0 012.923 1.746.336.336 0 01.04.169l-.068 1.308a.345.345 0 01-.286.31 5.373 5.373 0 01-1.046.092h-.405a.9.9 0 00-.285.023 1.624 1.624 0 01-1.03.347zm.3-1.562a.377.377 0 01.278.123.319.319 0 01.079.24.325.325 0 01-.124.225l-.253.2c-.038.032-.072.06-.1.086a.836.836 0 00.352-.146 1.105 1.105 0 01.778-.206h.405a5.158 5.158 0 00.631-.035l.05-.942a3.294 3.294 0 00-2.337-1.316 5.137 5.137 0 00-1.3.343 5.997 5.997 0 01-.307.233l-.032.027c-.158.116-.4.291-.522.408h.022a3.169 3.169 0 00.732-.2.4.4 0 01.148-.028.369.369 0 01.307.158.322.322 0 01-.087.432 5.621 5.621 0 00-.561.473l.84-.438a.391.391 0 01.178-.043.368.368 0 01.3.15.321.321 0 01-.083.45 3.045 3.045 0 00-.518.46 1.217 1.217 0 00.381-.17l.256-.2c.131-.112.253-.2.266-.21a.383.383 0 01.223-.074z" fill="#1a1919"/><path data-name="Fill 40" d="M42 15.755a12.228 12.228 0 013.337.234c.062-.676.113-1.5.142-1.91a5.02 5.02 0 01.521-.064 6.171 6.171 0 00-4 1.74" fill="#1a1919"/><path data-name="Fill 41" d="M15.349 37h-1.411a76.582 76.582 0 01-8.884-11.814A13.464 13.464 0 014.57 11.7C6.081 8.819 9.936 6.028 9.975 6l23.349.376c-.036.024-3.824 2.959-5.144 5.191-2.416 4.058-2.218 8.222-1.643 12.117.3 1.992 2.136 5.258 3.626 7.648l.031.047a.842.842 0 00.063.086 2.638 2.638 0 00-1.492.4.229.229 0 00-.063.173c.026.317.566.557 1.343.6h.058a1.344 1.344 0 011.2.648c.188.23.356.461.491.646a2.952 2.952 0 00.352.44c.784 1.154 1.426 2.041 1.734 2.467L34 37h-.6c-2-1.711-4.218-3.554-6.258-5.192a10.959 10.959 0 00-6.762-2.193 10.79 10.79 0 00-3.681.615c-1.254.458-1.89 1.618-1.892 3.448A11.969 11.969 0 0015.349 37zm-6.53-23.048a5.433 5.433 0 00-.884 1.485 3.155 3.155 0 00-.2 1.507l4.552.076a10.32 10.32 0 00-.048 2.662 10.06 10.06 0 00.722 2.756h3.213l-.006-.011a12.81 12.81 0 01-.881-3.023 6.269 6.269 0 01.064-2.344l4.593.031a3.634 3.634 0 01.1-1.379 6.054 6.054 0 01.824-1.7h-4.85a4.011 4.011 0 01.677-1.581 23.67 23.67 0 011.639-2.256l-3.215-.015a9.727 9.727 0 00-1.266 1.55 9.5 9.5 0 00-.993 2.278z" fill="#005c9c"/><path data-name="Fill 42" d="M34.63 38h-.611a.378.378 0 01-.241-.09 239.876 239.876 0 00-6.3-5.226 10.675 10.675 0 00-6.586-2.13 10.5 10.5 0 00-3.587.6c-1.1.4-1.658 1.436-1.669 3.076a11.661 11.661 0 00.509 3.185.364.364 0 01.068.212.374.374 0 01-.372.376H14.4a.363.363 0 01-.27-.121A78.457 78.457 0 015.128 25.9a13.918 13.918 0 01-.494-13.949c1.58-3.019 5.521-5.851 5.561-5.879h.005A.264.264 0 0110.372 6h.043l23.539.38a.371.371 0 01.346.258.377.377 0 01-.128.415c-.036.026-3.793 2.934-5.091 5.127-2.381 3.99-2.181 8.11-1.606 11.967.226 1.533 1.471 4.149 3.6 7.565l.028.041c.014.02.025.038.039.055a.373.373 0 01-.265.611 3.224 3.224 0 00-1.151.215 2.068 2.068 0 00.934.217 1.743 1.743 0 011.537.788c.187.228.355.458.49.643l.016.022.022.031c.105.143.224.3.265.343a.5.5 0 01.078.085c.814 1.2 1.49 2.13 1.745 2.481l.117.162a.376.376 0 01-.3.595zM10.527 6.752c-.639.476-3.891 2.977-5.238 5.548a13.206 13.206 0 00.48 13.231 76.047 76.047 0 008.8 11.722h.764c-.45-1.69-1.179-5.74 1.724-6.8a11.253 11.253 0 013.839-.643 11.423 11.423 0 017.044 2.29c.318.254.668.538 1.1.893a.686.686 0 01-.124-.34.587.587 0 01.15-.446 1.9 1.9 0 011.147-.469c-2.071-3.369-3.241-5.886-3.478-7.48-.59-4-.791-8.27 1.7-12.46a22.5 22.5 0 014.467-4.683zm18.93 26.573c1.342 1.093 2.7 2.225 4.045 3.366a89.456 89.456 0 01-1.017-1.469 3.749 3.749 0 01-.378-.476l-.014-.02-.007-.009a10.926 10.926 0 00-.458-.6c-.408-.492-.566-.5-.949-.516a3.111 3.111 0 01-1.223-.276zm-12.8-10h-3.235a.367.367 0 01-.333-.211 10.474 10.474 0 01-.762-2.892 10.58 10.58 0 01-.007-2.366l-4.172-.069a.369.369 0 01-.359-.316 3.535 3.535 0 01.224-1.723 5.912 5.912 0 01.958-1.6.33.33 0 01.225-.13.231.231 0 01.052.007l3.8.033A9.991 9.991 0 0114 11.934a9.767 9.767 0 011.338-1.634.372.372 0 01.257-.1l3.242.014a.37.37 0 01.332.216.376.376 0 01-.049.4 24.021 24.021 0 00-1.62 2.221 6.7 6.7 0 00-.518 1.028h4.411a.371.371 0 01.329.2.38.38 0 01-.025.386 5.619 5.619 0 00-.769 1.577 4.224 4.224 0 00-.119 1.184.355.355 0 01.022.132.374.374 0 01-.371.366l-4.327-.03a6.492 6.492 0 000 1.934 12.8 12.8 0 00.85 2.93l.009.02a.024.024 0 010 .007.372.372 0 01-.336.528zm-7.241-8.557A5.471 5.471 0 008.7 16.03a2.711 2.711 0 00-.2 1.011l4.246.071a.378.378 0 01.28.136.374.374 0 01.078.305 10.056 10.056 0 00-.045 2.569 10.874 10.874 0 00.606 2.452H16.1a12.992 12.992 0 01-.706-2.632 6.828 6.828 0 01.073-2.516.377.377 0 01.358-.275l4.234.03a5.693 5.693 0 01.14-1.1 4.959 4.959 0 01.523-1.255H16.5a.372.372 0 01-.37-.373 4.016 4.016 0 01.735-1.786 18.153 18.153 0 011.2-1.712l-2.319-.012a8.944 8.944 0 00-1.113 1.387 9.486 9.486 0 00-.958 2.2.369.369 0 01-.357.276z" fill="#1a1919"/><path data-name="Fill 44" d="M47.577 22a1.161 1.161 0 01-1.069-.947 1.893 1.893 0 01.038-.268 2.474 2.474 0 00.069-.644c-.4-.187-.524-.76-.565-1.085a11.128 11.128 0 01-.042-.407 4.909 4.909 0 00-.128-.92 1.19 1.19 0 00-.337-.058c-.684-.13-.567-.881-.464-1.544v-.009l.015-.091c.013-.083.027-.169.039-.254.067-.537.145-1.62.184-2.202l.016-.241a.235.235 0 01.194-.216 9.7 9.7 0 011.52-.114 12.182 12.182 0 011.227.064.231.231 0 01.2.172l.166.626a.246.246 0 01.007.1A7.7 7.7 0 0048.6 15.3c.027.344.34.4.524.4a.275.275 0 01.271.221c0 .007.049 1.049.158 1.818a.64.64 0 00.695.561.839.839 0 00.319-.058 4.314 4.314 0 00.614-.356.216.216 0 01.119-.041.229.229 0 01.111.029.234.234 0 01.118.206 3.184 3.184 0 00.014.355 2.045 2.045 0 00.408.869.234.234 0 01.034.234.223.223 0 01-.18.145 5.34 5.34 0 00-1.554.617 6.924 6.924 0 00-1.175.861l-.014.012a3.9 3.9 0 01-1.13.767 1.066 1.066 0 01-.355.06zm-.526-8.53a9.8 9.8 0 00-1.278.081l-.003.049c-.052.774-.12 1.723-.186 2.236l-.023.152-.03.2c-.105.672-.121.978.064 1.014a.861.861 0 01.667.268 3.128 3.128 0 01.198 1.13c.013.154.029.3.04.391.047.374.176.671.314.724.374.147.26.732.176 1.158l-.008.044a1.368 1.368 0 00-.021.136.8.8 0 00.64.469.564.564 0 00.182-.031 3.564 3.564 0 00.982-.681 7.227 7.227 0 011.267-.928 6.829 6.829 0 011.361-.582 2.061 2.061 0 01-.3-.814 3.648 3.648 0 01-.348.182 1.272 1.272 0 01-.5.1A1.091 1.091 0 0149.1 17.8a22.194 22.194 0 01-.15-1.648.872.872 0 01-.806-.817 8.055 8.055 0 01.049-1.4l-.117-.419c-.344-.03-.69-.046-1.025-.046z" fill="#1a1919"/><path data-name="Fill 45" d="M49.118 14.111A20.335 20.335 0 0155 16a3.918 3.918 0 00-1.863-1.592 4.243 4.243 0 00-1.2-2.372A3.581 3.581 0 0049.335 11a5.62 5.62 0 00-3.13 1.136 2.45 2.45 0 00-.832 1.282s-3.873.735-3.319 2.175c.783-.762 2.8-2.093 7.064-1.482" fill="#005c9c"/><path data-name="Fill 46" d="M54.635 16h-.018a.325.325 0 01-.167-.044 17.734 17.734 0 00-5.432-1.938 12.233 12.233 0 00-1.891-.158 5.807 5.807 0 00-4.455 1.6.348.348 0 01-.256.117.311.311 0 01-.08-.01.37.37 0 01-.265-.245 1.256 1.256 0 01.083-1.022c.529-.985 2.342-1.525 3.1-1.711a3.284 3.284 0 01.828-1.3A5.376 5.376 0 0149.277 10a3.526 3.526 0 012.7 1.18 4.784 4.784 0 011.21 2.5 4.316 4.316 0 011.691 1.65.383.383 0 01.122.288.374.374 0 01-.365.382zm-7.508-2.907a12.883 12.883 0 012 .168 16.518 16.518 0 013.549 1.019.382.382 0 01-.176-.28 4.316 4.316 0 00-1.009-2.249 2.832 2.832 0 00-2.214-.985 4.616 4.616 0 00-2.7 1.085 2.289 2.289 0 00-.677 1.126.415.415 0 01-.1.208 9.526 9.526 0 011.327-.092z" fill="#1a1919"/><path data-name="Fill 47" d="M52.623 15.147c-.074-.03-.16-.061-.242-.093a.429.429 0 00-.045-.014 17.842 17.842 0 00-2.054-.64A15.06 15.06 0 0048 14l.171.6a7.112 7.112 0 00-.054 1.33c.054.641.812.587.812.587s.052 1.011.164 1.756.948.82 1.356.653a4.181 4.181 0 00.974-.584 3.108 3.108 0 00.546-1.357c-.043-.292.6-.208.831-.559a.9.9 0 00-.177-1.28" fill="#f8cb89"/><path data-name="Fill 48" d="M50.516 19a1.278 1.278 0 01-1.368-1.088 20.132 20.132 0 01-.156-1.559 1.019 1.019 0 01-.868-.921 7.517 7.517 0 01.049-1.4l-.159-.557a.366.366 0 01.076-.339.38.38 0 01.296-.136h.04a16.814 16.814 0 012.449.429 19.084 19.084 0 012.2.689l.311.118a1.394 1.394 0 01.6.924 1.349 1.349 0 01-.262.985 1.237 1.237 0 01-.717.447l-.035.008-.053.019a3.3 3.3 0 01-.674 1.581 4.551 4.551 0 01-1.139.692 1.551 1.551 0 01-.59.108zm-1.598-5.183l.025.089a.342.342 0 01.012.154 7.072 7.072 0 00-.055 1.315c.007.066.026.267.417.267a.431.431 0 01.434.358c0 .007.053 1.046.169 1.81a.533.533 0 00.6.44.781.781 0 00.28-.05 4.119 4.119 0 00.89-.527 2.738 2.738 0 00.461-1.18c-.015-.411.421-.553.607-.613h.013a.712.712 0 00.31-.149.565.565 0 00-.093-.85l-.162-.047a18.682 18.682 0 00-2.146-.675 15.312 15.312 0 00-1.564-.313c-.07-.012-.139-.021-.198-.029z" fill="#1a1919"/><path data-name="Fill 49" d="M46.334 19.173a1.607 1.607 0 01.794-.29 2.529 2.529 0 00.538-.056" fill="#f8cb89"/><path data-name="Fill 50" d="M46.376 19.572a.371.371 0 01-.308-.172.419.419 0 01.088-.552 1.829 1.829 0 01.972-.366 1.412 1.412 0 00.417-.046.382.382 0 01.447.3.4.4 0 01-.285.476 2.653 2.653 0 01-.6.064H47.1a1.127 1.127 0 00-.506.224.359.359 0 01-.218.074" fill="#1a1919"/><path data-name="Fill 51" d="M46.376 14.81c.216.434 1.03.378 1.248.378" fill="#f8cb89"/><path data-name="Fill 52" d="M47.653 15.59c-.46 0-1.16-.054-1.434-.6a.4.4 0 01.714-.36c.02.04.188.176.816.16l.076.4v.4h-.172" fill="#1a1919"/><path data-name="Fill 53" d="M46.357 17.5s.332.594.162.7a5.224 5.224 0 01-1.086.3" fill="#f8cb89"/><path data-name="Fill 54" d="M45.433 18.751a.25.25 0 01-.054-.494l.146-.032a7.5 7.5 0 00.786-.2 1.93 1.93 0 00-.172-.404.251.251 0 01.438-.244c.2.364.382.84.078 1.034a3.787 3.787 0 01-1.024.3l-.142.032a.281.281 0 01-.056.006" fill="#1a1919"/><path data-name="Fill 55" d="M49 19.314s-.4.976-.835 1.19a2.924 2.924 0 01-1.165.18" fill="#f8cb89"/><path data-name="Fill 56" d="M46.518 21h-.164a.371.371 0 01-.354-.385.39.39 0 01.383-.353 3.559 3.559 0 001.168-.14 2.279 2.279 0 00.749-.917.364.364 0 01.495-.165.366.366 0 01.166.493 2.855 2.855 0 01-1.137 1.274 3.9 3.9 0 01-1.306.193" fill="#1a1919"/><path data-name="Fill 57" d="M33.634 7a.365.365 0 01-.319-.183l-2.337-4.048-20.545 3.855a.355.355 0 01-.427-.289.362.362 0 01.294-.424l20.8-3.905a.367.367 0 01.386.176l2.469 4.275a.364.364 0 01-.137.5.38.38 0 01-.184.043" fill="#1a1919"/><path data-name="Fill 58" d="M31.484 75C13.464 75 0 60.546 0 47.624 0 38.323.12.855.121.479V.016L63 0v.466c0 .376-.037 37.864-.037 47.155C62.963 60.545 49.5 75 31.484 75zM62.077.932L1.043.947c0 .6-.005 1.775-.01 3.366C1 14.087.923 40.051.923 47.624c0 12.483 13.069 26.445 30.56 26.445s30.559-13.964 30.559-26.448c0-8.735.029-42.021.035-46.689z" fill="#1a1919"/></svg>