<?xml version="1.0" encoding="utf-8"?>
<!-- Generator: Adobe Illustrator 21.1.0, SVG Export Plug-In . SVG Version: 6.00 Build 0)  -->
<svg version="1.1" id="Hintergrund_xA0_Bild_1_" xmlns="http://www.w3.org/2000/svg" xmlns:xlink="http://www.w3.org/1999/xlink"
	 x="0px" y="0px" viewBox="0 0 270 138" style="enable-background:new 0 0 270 138;" xml:space="preserve">
<style type="text/css">
	.st0{fill:none;}
	.st1{fill:#1E1E1C;}
	.st2{fill:#FFDC0A;}
	.st3{fill:#FFFFFF;}
	.st4{fill:#E20E17;}
	.st5{fill:#1CA438;}
</style>
<rect class="st0" width="270" height="138"/>
<g>
	<path class="st1" d="M59.1,22.1c2.1,3.1,2.1,7.8,0.3,11.1c1,2.4,2.2,4.8,3,7.3c3,2.1,4,5.2,5.4,8.2c1.5,3.4,2.8,7,3.6,10.9
		c1.6,2.1,3,4.2,4.3,6.3c0.9,1.5,1.5,3.1,3,4.3c0.1,0.3,0.3,0.6,0.6,0.9c0.6,0.7,1,1.6,1.3,2.7c0.3,0.3,0.6,0.4,0.9,0.7
		c2.5,2.1,2.8,5.5,2.4,8.7c-0.3,2.7-1,5.2-1.9,7.8c-0.7,0.4-1.6,0.4-2.5,0.6c-1.5,0-3,0-4.2-0.4c-0.3-0.4-0.3-1-0.4-1.5
		c-0.7-2.5-1.8-5.7-4.6-6.6L70,82.8v-2.5c0.3-0.4,1-0.1,1.6-0.4c0.3-0.6,0.3-1.3,0.4-1.9c0.3-1.2,0.7-2.4,1.6-3.4
		c-0.1-1.3,1.2-3.3-0.6-3.9c-2.1-1.6-3.9-3.6-6-5.2L67,65.4c0.3,3.9,0.4,8.1,0.7,11.8l0.7,11.4l1.3,16.7l0.6,8.8
		c0,0.6-0.3,1.3-0.9,1.5c-2.7,0.6-5.5,0-8.4,0.1c-1.3,1.2-2.7,2.8-4.8,2.2c-1-0.4-1-1.8-1.2-2.8c-4.5-0.4-6.4-0.7-10.3-1.3
		c-0.3,0.7-0.7,1.5-1.5,1.6c-1,0.3-2.1-0.6-3,0.1c-1.8,1.2-4,2.2-6.1,1.3c-0.3-0.1-0.6-0.4-0.6-0.9c0.1-1.2,1.3-2.1,2.4-2.5
		c2.5-1.2,2.7-1.9,2.7-1.9c-10.5-11.4-11.2-22.9-8.4-29.5c0.3-0.7,0.6-1.8,0-2.5c-0.3-0.6-1-1.5-2.4-2.2c-0.1-0.3,0-0.7,0-1
		l1.8-16.4c-3.4-0.3-5.1-0.7-6.9-1.3c-0.3-0.1-0.3-0.1-0.6-0.3c-1.5-1.2-2.8-2.5-3.7-4.3c-2.4-0.9-2.7-1.2-3.4-2.7
		c-0.4-1.3-0.3-3,0.6-4.2c0.9-1.3,2.5-1.8,4-1.6v2.4h0.9v-2.4h0.9v2.4h0.9v-2.4h0.9v2.4h0.9v-2.4c1.6-0.1,3.1,0.4,4,1.8
		s0.9,3.4,0,4.8c-0.6,0.9-1.6,1.5-2.5,1.9c0.7,0.4,1.5,0.7,1.9,0.9c1.3,0.4,2.2,0.6,3,0c4.2-3.3,7.9-6.7,12-10.3l0.6-0.6
		c-0.1-2.1-0.3-4.2-0.4-6.3l-0.4-0.3c-3.6-2.7-5.2-7-4.5-11.4c0.6-4.2,4-7.9,7.9-9.1c2.5-0.7,5.8-0.6,8.1,0.4
		C56,18.3,58.1,20,59.1,22.1L59.1,22.1z"/>
	<path class="st2" d="M56.6,21.3c2.2,2.5,3.1,6.3,1.9,9.7c-1.3-3-2.7-5.5-5.2-7.5c-1.2-0.9-3-1-4-0.3c-1,1-1.2,1.3-1.8,1.3
		c-1.8,0-2.5,0-3.4,1.2c-1.6,2.1-1.8,6.1-1.6,9.4l-0.3-0.3c-2.4-3-3.4-7.2-1.6-10.9c1.3-3.4,4.8-5.5,8.5-5.7
		C51.8,18,54.5,19.1,56.6,21.3L56.6,21.3z"/>
	<path class="st2" d="M60.5,39.4h-3.3c-0.3-1.3,0-3.3-1.6-3.7c-0.9-0.6-0.7-1.8-0.9-3c-0.4-2.7-1.3-5.7-4.2-6.4
		c-2.1-0.4-4.3,0.4-5.4,2.2c-1.6,3.3-0.3,7.2,1.8,9.9c0.6,0.7,1.5,1.5,2.8,1.6c0.3,0.1,0.1,0.6,0.1,0.9c-0.3,0.3-0.9,0.3-1.3,0.4
		c-1.3,0.3-3,1.2-4,1.8c-0.9-6.4-1.8-13.9,0.6-16.3c0.9-1.5,2.4-0.6,3.7-1.6c1-0.9,1.5-1.2,2.8-0.9C53.6,25,56.9,29.4,60.5,39.4
		L60.5,39.4z"/>
	<path class="st3" d="M51.3,28.5c1.9,2.4,1.6,4.9,2.2,7.5c0.1,0.7,0.9,1.2,1.5,1.5c0.4,0.1,0.9,2.5,0.6,3c-0.9,0.9-2.2,1.2-3.6,0.9
		c-0.3-0.1-0.6-0.1-0.7-0.4c-0.1-0.4-0.3-1,0-1.3c0.4-0.4,1.3-0.9,1.3-1.8c-0.1-0.4-0.3-0.1-1.2,0.4c-0.9,0.4-1.9,0.9-2.8,0.3
		c-0.6-0.3-0.6-0.6-0.9-0.9c-1.5-1.9-1.8-2.5-2.1-4.3c0-0.1,0.1-0.1,0.3-0.1c0,0.3,0.1,0.6,0.4,0.7c0.3,0.1,0.4,0,0.6-0.1
		c0.1-0.1,0.1-0.6,0-0.7c0.4,0.1,0.4,0,0.4-0.1c-0.4-0.1-1.2-0.1-1.8,0.1c-0.1-0.3,0-0.6,0-0.6s0.3-0.1,0.6-0.1
		c0.6,0,1.2-0.1,1.5,0.3c0.3,1.2,0.4,2.8,0.7,3.4c0.3,0.6,1.2,0.1,1.6,0c0.3-0.1,0.1-0.3,0.1-0.6c-0.3,0-1,0.4-1.2-0.1
		c-0.3-1-0.3-2.2-0.7-3.3c-0.6-0.6-1.8-0.3-2.5-0.1c-0.1-1,0.3-2.4,1.2-3.1C47.9,27.1,50.3,27.1,51.3,28.5L51.3,28.5z"/>
	<path class="st1" d="M51.6,31.8v0.1c-0.1,0-0.3-0.1-0.7-0.1c0.3,0.3,0.1,0.9-0.1,0.9s-0.4,0-0.6-0.1C50,32.4,50,32.1,50,32.1
		l-0.4,0.1c-0.3-0.1,0.1-0.4,0.6-0.6C50.7,31.3,51.3,31.5,51.6,31.8L51.6,31.8z"/>
	<path class="st1" d="M50.9,36.6c-0.6,0.6-1.6,0.7-2.7,0.6c0.3-0.3,0.7-0.7,1.3-0.4C49.8,36.3,50.4,36.3,50.9,36.6L50.9,36.6z"/>
	<path class="st1" d="M50.4,37.3c0,0.7-0.7,0.7-1,0.6l-0.3-0.3C49.8,37.6,50,37.6,50.4,37.3L50.4,37.3z"/>
	<path class="st4" d="M63.1,43.3c2.8,4,4.3,8.8,5.8,13.5c0,0.4,0.6,1.2-0.1,1.5c-1.5,1.3-2.8,2.7-3.7,4.5v1.6l1.2,17.5L67.2,95
		c0.4,6.3,0.7,12.6,1.2,18.8l-0.1,0.1c-1.8,0-4,0-6.1-0.1c-0.3-3.7-0.6-7.6-0.9-11.4c-0.4-0.4-1-0.6-1.5-1c-1.6-1.2-2.7-3.1-2.7-5.2
		v-2.8l0.3-11.2c0.3-9.7,0.6-19.6,0.9-29.2c-1.9-1.9-3.7-4.2-5.4-6.6c-0.6-0.9-0.9-1.6-1.5-2.5c-0.3-0.1-4.2,3.4-8.8,6.1
		c-5.1,2.8-5.1,3.1-10,4.8l1.8-1.3c3.9-3,7.2-6,11.1-9.3c1.6-1,3.9-2.2,6.3-1.5c1.2,0.1,2.7,0.4,3.7-0.3c0.9-0.3,1.9-1.3,2.5-1.3
		C60,40.6,62.1,41.5,63.1,43.3L63.1,43.3z"/>
	<path class="st2" d="M35.8,55c4.3-1.5,10.9-6.1,14.5-8.7h0.1c1.8,2.5,3.6,5.2,5.7,7.8L56,60.3l-0.1,0.1c-2.1,0.4-4.3,0.4-6.4-0.1
		c-0.3-0.1-0.7-0.1-0.6-0.7V56c1,0.3,2.4,0.3,3-0.3c0.1-0.3-0.6-0.1-1.3-0.4c-1.8-0.1-3.1-1.6-3.9-3.4c-0.6,0.4-4.6,4-6.4,5.4
		c-4.9,1.6-9.1,1.6-9.1,1.6v-2.4C34.3,55.7,35.5,55.1,35.8,55L35.8,55L35.8,55z"/>
	<path class="st2" d="M27.4,49.7c-0.1,2.5-2.4,2.8-2.4,2.8v-1.8h-6.9v1.6c0,0-2.4-0.4-2.4-2.7c0.1-2.4,1.6-3,2.4-3.1v2.7h7v-2.5
		C26.2,47,27.4,48.2,27.4,49.7L27.4,49.7z"/>
	<path class="st3" d="M20.2,52.3v1.6h0.9v-1.6H22v1.6h0.9v-1.6h0.9v2.2c0.6,0.7,1,0.9,1.6,1.2c1.3,0.4,2.7,0.9,4.2,1
		c0.1,1,0.1,1.2-0.1,2.1c-2.1-0.3-4.5-0.6-6.6-1.5c-1.9-1-3.6-3.7-3.6-3.7v-1.3H20.2L20.2,52.3z"/>
	<path class="st4" d="M46.4,53.9c1.6,0.9,0.9,1.6,1,3.6l-0.1,2.2c-1,0.9-1.8,2.1-2.4,3.1l0,0c-1.2,2.1-1.8,4.2-2.4,6.4
		c-2.1,6.9-3.4,14.7-3,22.1c0.1,2.7,0.9,4,2.1,5.7c-0.6,4.5-1.3,8.5-2.2,12.9c0,0-13-14.2-7.3-27.5c0.6-1.6,0.9-3.3-0.9-4.6
		c-0.4-0.4-1.2-0.9-1.6-1.3l0.3-3.1l1.5-12c0.1-0.3,0-0.7,0.1-1c3.3-0.3,6.7-0.7,9.7-2.1c1.8-1.3,3.3-2.8,5.1-4.3H46.4L46.4,53.9z"
		/>
	<path class="st2" d="M70,60.5c1.9,2.4,4.2,5.1,5.5,7.8c0.1,0.4-0.3,0.4-0.6,0.7c-0.1,0-0.4,0.1-0.6,0c-2.2-2.1-4.8-4.2-6.7-6.4
		v-0.1c0.6-0.9,1.3-1.6,2.1-2.2C69.9,60.3,69.9,60.5,70,60.5L70,60.5z"/>
	<path class="st4" d="M56,61.5c0,0.4,0,0.7,0,1.2c-2.7,0.7-7.5,0.1-8.7-0.9c0.1-0.3,0.6-0.7,0.7-1C49.7,61.5,52.2,62.3,56,61.5
		L56,61.5z"/>
	<path class="st2" d="M55.8,64.2v2.5l-0.4,14.8c-0.3,4.5-0.3,8.8-0.4,13.3c-0.3,3.6,1.2,6.9,4.2,8.5l0.3,0.1
		c0.3,2.8,0.4,5.5,0.6,8.5c-2.1-1.6-4.2-3.3-6.3-4.9c-0.3-0.1-0.7-0.3-0.6,0.1l0.1,0.3c1.9,2.1,3.9,4,6,6.1c-1.9,0-3.9-0.3-5.8-0.4
		c-3.7-0.4-7.5-0.7-10.9-1.8l-1.8-0.6c0.7-4,1.5-8.1,2.2-12.1c1.3,0.9,2.5,2.1,3.9,2.7c0.3,0.1,0.4,0.3,0.6,0.1
		c0.1-0.1,0.1-0.3,0-0.4c-2.1-2.8-5.8-4.9-6.3-8.8c-0.6-8.1,0.7-15.7,2.8-23c0.7-2.1,1.2-4.6,2.5-6.4C49.4,64.1,51,64.5,55.8,64.2
		L55.8,64.2z"/>
	<path class="st3" d="M77.6,71c0.6,1,1.8,2.5,1.5,4c-0.3,0.6-0.6,1-1,1.3c-0.3,0-0.7-0.4-0.6-0.7c0.1-0.4,0.6-1,0.3-1.5
		c-0.6-0.6-1.5-0.9-2.4-0.9c0-1-0.3-2.5,0.9-3.1c0.1,0.1,0.1-0.1,0.4-0.1C77.1,70.2,77.3,70.7,77.6,71L77.6,71z"/>
	<path class="st5" d="M76.2,75.3c-0.6,1.6-1.2,3.1-1.2,4.9c0.1,0.4,0.6,0.1,0.9,0.1c0.4-0.1,1-0.1,1.6-0.3c1.2-0.1,2.4-0.3,3.7-0.3
		c0.1-0.4,0-0.9,0-1.5c-0.3-0.9-0.4-1.6-1-2.4c0-0.1,0.1-0.3,0.3-0.6c0.4,0.1,0.9,0.6,1,1c1.9,2.8,0.7,6.6,0.1,9.7l-0.7,3
		c-1,0.6-2.5,0.6-3.9,0.4c-0.6-0.1-0.4-1-0.7-1.6c-0.7-2.5-1.9-5.2-4.3-6.3c-0.3-0.1-0.1-0.6-0.1-0.7c0.4-0.3,1.2,0.1,1.6-0.4
		c0.3-1.9,0.3-4,1.6-5.4c0.3-0.1,0.4-0.4,0.7-0.3C75.9,75,76.2,75.1,76.2,75.3L76.2,75.3z"/>
	<path class="st3" d="M79.3,78c0,0.1,0.1,0.6,0,0.7c-0.7,0.1-1.5,0.1-2.2,0.1c0-0.3,0-1,0.1-1.3C77.6,78.1,79,76.9,79.3,78L79.3,78z
		"/>
	<path class="st3" d="M42.1,113.3c0.4,0.1,1.2,0.1,1,0.7c-0.7,0.9-2.1-0.1-3,0.4H40c-1.2,0.9-2.4,1.8-4,1.8c-0.3,0-0.4-0.3-0.3-0.6
		c1-1.2,2.5-0.9,3.6-1.9c0.4-0.3,0.7-1.2,1.5-0.9C41.2,113,41.6,113.1,42.1,113.3L42.1,113.3z"/>
	<path class="st3" d="M59.3,115.7c-0.1,0.4-0.7,0.7-1.2,1c-0.3,0-0.7,0.1-1,0c-0.1-0.3-0.6-0.4-0.4-1.2
		C57.5,115.7,57.9,115.8,59.3,115.7L59.3,115.7z"/>
	<path class="st1" d="M51.6,31.2c-0.9-0.4-1.8-0.1-2.5,0.4l-0.1-0.4c0.9-0.7,1.9-0.9,3-0.4L51.6,31.2L51.6,31.2z"/>
</g>
<g>
	<path d="M121.6,71.8c-1.3-0.8-2.7-1.2-5-1.2c-4.2,0-7,3-7,7.1c0,4.3,3.1,7.1,6.8,7.1c1.8,0,2.3-0.2,2.9-0.3v-5.5h-3.8v-2.1h6.4v9.4
		c-1,0.3-2.7,0.8-5.5,0.8c-5.7,0-9.6-3.7-9.6-9.5c0-5.6,4.1-9.3,9.6-9.3c2.7,0,3.8,0.4,5.3,0.9L121.6,71.8z"/>
	<path d="M127.8,68.5H138v2.3h-7.6v5.3h6.9v2.3h-6.9v6h7.6v2.3h-10.2V68.5z"/>
	<path d="M142.9,68.5h4.3l5.7,15.1l5.6-15.1h4.3v18.1h-2.6V71h-0.1l-6,15.7h-2.5l-6-15.7h-0.1v15.7h-2.6V68.5z"/>
	<path d="M168.7,68.5h10.2v2.3h-7.6v5.3h6.9v2.3h-6.9v6h7.6v2.3h-10.2V68.5z"/>
	<path d="M183.9,68.5h2.6v18.1h-2.6V68.5z"/>
	<path d="M192.2,68.5h3.5l8,14.6h0.1V68.5h2.6v18.1h-3.3l-8.2-14.9h-0.1v14.9h-2.6V68.5z"/>
	<path d="M212.1,68.5h5.4c5.4,0,9.7,3.3,9.7,8.9c0,6.1-3.7,9.2-9.7,9.2h-5.4V68.5z M214.7,84.4h2.7c4.5,0,6.9-2.2,6.9-6.8
		c0-4.2-2.9-6.7-6.6-6.7h-3V84.4z"/>
	<path d="M232.1,68.5h10.2v2.3h-7.6v5.3h6.9v2.3h-6.9v6h7.6v2.3h-10.2V68.5z"/>
	<path d="M116.1,101.3c-1.3-0.5-2.1-0.8-3.4-0.8c-1.5,0-3.2,0.5-3.2,2.4c0,3.5,7.8,2.7,7.8,8.7c0,3.9-3,5.4-6.6,5.4
		c-1.3,0-2.5-0.4-3.7-0.8l0.3-2.4c0.9,0.4,2.4,0.9,3.8,0.9c1.5,0,3.6-0.8,3.6-3c0-4.1-7.8-2.9-7.8-8.6c0-3.2,2.5-4.9,5.8-4.9
		c1.2,0,2.6,0.2,3.9,0.7L116.1,101.3z"/>
	<path d="M125.8,100.8h-5.6v-2.3H134v2.3h-5.6v15.9h-2.6V100.8z"/>
	<path d="M141.7,98.5h2.7l7.7,18.1h-2.8l-1.8-4.6h-8.9l-1.8,4.6H134L141.7,98.5z M143,101l-3.6,9h7.2L143,101z M139.7,94.4h2.4V97
		h-2.4V94.4z M144,94.4h2.4V97H144V94.4z"/>
	<path d="M155.9,98.5h9.6v2.3h-7v5.3h6.7v2.3h-6.7v8.3h-2.6V98.5z"/>
	<path d="M174.7,98.5h2.7l7.7,18.1h-2.8l-1.8-4.6h-8.9l-1.8,4.6h-2.7L174.7,98.5z M176,101l-3.6,9h7.2L176,101z"/>
</g>
</svg>
